<svg xmlns="http://www.w3.org/2000/svg" viewBox="0 0 64 64">
  <defs>
    <radialGradient id="g" cx="50%" cy="40%" r="50%">
      <stop offset="0%" stop-color="#ffffff"/>
      <stop offset="100%" stop-color="#ccccdd"/>
    </radialGradient>
  </defs>
  <path d="M32 4C18 4 10 16 10 28v28c0 0 4-6 8-2s4 6 8 2 4-6 8-2 4 6 8 2 4-6 8-2 4 6 8 2V28C58 16 46 4 32 4z" fill="url(#g)" opacity="0.9"/>
  <circle cx="24" cy="26" r="5" fill="#1a0020"/>
  <circle cx="40" cy="26" r="5" fill="#1a0020"/>
  <circle cx="24" cy="25" r="2" fill="#ff0000"/>
  <circle cx="40" cy="25" r="2" fill="#ff0000"/>
  <ellipse cx="32" cy="36" rx="4" ry="5" fill="#1a0020"/>
</svg>
